<?xml version="1.0" standalone="no"?>
<!DOCTYPE svg PUBLIC "-//W3C//DTD SVG 20010904//EN"
 "http://www.w3.org/TR/2001/REC-SVG-20010904/DTD/svg10.dtd">
<svg version="1.0" xmlns="http://www.w3.org/2000/svg"
 width="512.000000pt" height="512.000000pt" viewBox="0 0 512.000000 512.000000"
 preserveAspectRatio="xMidYMid meet">
<metadata>
Created by potrace 1.11, written by Peter Selinger 2001-2013
</metadata>
<g transform="translate(0.000000,512.000000) scale(0.100000,-0.100000)"
fill="#000000" stroke="none">
<path d="M1807 4144 c-1 -1 -35 -5 -76 -8 -41 -4 -77 -9 -81 -11 -4 -2 -20 -7
-36 -10 -16 -3 -33 -7 -39 -9 -81 -23 -112 -34 -185 -69 -47 -23 -89 -45 -95
-49 -5 -5 -40 -31 -77 -58 -139 -103 -254 -244 -323 -394 -74 -160 -104 -311
-99 -491 3 -90 25 -225 46 -278 15 -37 4 -46 -63 -52 -30 -3 -61 -6 -69 -8
-70 -15 -94 -23 -160 -50 -41 -17 -76 -34 -78 -39 -2 -4 -9 -8 -16 -8 -25 0
-132 -83 -206 -160 -125 -129 -211 -298 -238 -470 -15 -93 -7 -261 18 -355 23
-90 81 -217 131 -286 63 -87 210 -229 237 -229 6 0 12 -4 14 -8 5 -13 165 -91
172 -85 3 4 6 1 6 -4 0 -6 8 -10 17 -8 10 1 23 0 28 -4 6 -3 13 -6 18 -7 4 -1
8 -2 10 -4 26 -21 268 -24 1897 -24 1653 0 1802 3 1826 27 4 4 15 7 25 7 42 0
279 115 309 151 3 3 13 10 23 15 33 19 149 138 193 201 196 272 235 635 104
945 -102 239 -315 442 -555 528 -33 12 -67 24 -75 27 -8 3 -24 7 -35 9 -11 1
-42 6 -70 10 -52 9 -270 11 -318 3 -27 -4 -29 -1 -51 66 -68 210 -201 371
-391 473 -35 19 -86 41 -107 47 -5 2 -9 3 -10 5 -2 1 -10 3 -18 5 -8 1 -35 8
-59 15 -93 25 -271 19 -396 -13 -11 -3 -27 -7 -35 -9 -8 -1 -17 -6 -20 -9 -3
-3 -16 -9 -30 -12 -23 -6 -28 1 -72 91 -86 178 -238 346 -394 437 -67 40 -234
118 -234 110 0 -2 -17 2 -38 9 -54 19 -110 27 -285 40 -20 1 -38 1 -40 0z"/>
</g>
</svg>
