<?xml version="1.0" encoding="utf-8"?>
<!-- Generator: Adobe Illustrator 24.1.1, SVG Export Plug-In . SVG Version: 6.00 Build 0)  -->
<svg version="1.1" id="Layer_1" xmlns="http://www.w3.org/2000/svg" xmlns:xlink="http://www.w3.org/1999/xlink" x="0px" y="0px"
	 viewBox="0 0 512 512" style="enable-background:new 0 0 512 512;" xml:space="preserve">
<style type="text/css">
	.st0{clip-path:url(#SVGID_2_);fill:url(#SVGID_3_);}
	.st1{clip-path:url(#SVGID_2_);fill:url(#SVGID_4_);}
	.st2{fill-rule:evenodd;clip-rule:evenodd;fill:#FFFFFF;}
	.st3{fill-rule:evenodd;clip-rule:evenodd;fill:#2F9BCA;}
	.st4{fill-rule:evenodd;clip-rule:evenodd;fill:#2EA3D0;}
	.st5{fill-rule:evenodd;clip-rule:evenodd;fill:#55B2D8;}
</style>
<g>
	<g>
		<defs>
			<polyline id="SVGID_1_" points="0,0 512,0 512,512 0,512 0,0 			"/>
		</defs>
		<clipPath id="SVGID_2_">
			<use xlink:href="#SVGID_1_"  style="overflow:visible;"/>
		</clipPath>
		
			<radialGradient id="SVGID_3_" cx="0.5604" cy="511.8022" r="2" gradientTransform="matrix(303.412 0 0 303.412 -84.981 -155197.9688)" gradientUnits="userSpaceOnUse">
			<stop  offset="0" style="stop-color:#FFFFFF"/>
			<stop  offset="1" style="stop-color:#FFFFFF"/>
		</radialGradient>
		<path class="st0" d="M0,0L0,0v512h512V336.7c-0.5,2.5-1.3,4.7-2.6,6.5V512H0V384V128V0 M512,0h-2.6v320.7c1.3,1.7,2.1,3.6,2.6,6.1
			V0"/>
		
			<radialGradient id="SVGID_4_" cx="0.5604" cy="511.8022" r="2" gradientTransform="matrix(303.412 0 0 303.412 -84.981 -155197.9688)" gradientUnits="userSpaceOnUse">
			<stop  offset="0" style="stop-color:#88CDE7"/>
			<stop  offset="1" style="stop-color:#2274AD"/>
		</radialGradient>
		<path class="st1" d="M509.4,0H0v128v256v128h509.4V343.2c1.3-1.8,2.1-4,2.6-6.5v-9.9c-0.5-2.5-1.3-4.4-2.6-6.1V0"/>
	</g>
	<path class="st2" d="M45.9,221.9l-9.8-23.8l-9.7,23.8H45.9z M261.5,212.5c-1.9,1.1-4.3,1.2-7.1,1.2H237v-13.3h17.6
		c2.5,0,5.1,0.1,6.8,1c1.8,0.9,3,2.8,3,5.3C264.4,209.4,263.3,211.4,261.5,212.5z M385.4,221.9l-9.9-23.8l-9.8,23.8H385.4z
		 M154.4,247.7h-14.7l-0.1-46.8L119,247.7h-12.6l-20.8-46.9v46.9H56.5L51,234.4H21.2l-5.5,13.3H0.2l25.6-59.8H47l24.3,56.7v-56.7
		h23.4l18.7,40.6l17.2-40.6h23.8V247.7z M212.8,247.7H165v-59.8h47.8v12.5h-33.4v10.7H212v12.3l-32.6-0.1v11.9h33.4V247.7z
		 M280.2,204.1c0,9.5-6.4,14.5-10,15.9c3.1,1.2,5.8,3.3,7,5.1c2,2.9,2.4,5.6,2.4,10.9v11.8h-14.4l0-7.5c0-3.6,0.3-8.7-2.3-11.6
		c-2.1-2.1-5.2-2.6-10.4-2.6H237v21.7h-14.3v-59.8h32.9c7.3,0,12.7,0.2,17.3,2.9C277.5,193.4,280.2,197.4,280.2,204.1z M288.5,247.7
		h14.6v-59.8h-14.6V247.7z M472.3,247.7H452l-27.1-44.9l0.1,44.9h-29.1l-5.6-13.3h-29.7l-5.3,13.3h-16.7c-7,0-15.8-1.6-20.7-6.6
		c-5.1-5.1-7.6-12-7.6-22.9c0-8.9,1.6-17,7.7-23.4c4.6-4.8,11.9-7,21.7-7h13.8v12.8h-13.5c-5.2,0-8.2,0.8-11.1,3.6
		c-2.4,2.5-4.1,7.3-4.1,13.6c0,6.4,1.3,11,4,14.1c2.1,2.3,6.2,3.1,9.9,3.1h6.4l20.1-47h21.4l24.2,56.6v-56.6h21.8l25.1,41.7v-41.7
		h14.6V247.7z M0,259.5h24.4l5.5-13.3h12.3l5.5,13.3h48.1v-10.2l4.3,10.2h24.9l4.3-10.3v10.3h119.5l-0.1-21.8h2.3
		c1.6,0,2.1,0.2,2.1,2.9v18.9H315v-5.1c5,2.7,12.8,5.1,22.9,5.1h26l5.6-13.3h12.3l5.5,13.3h50.1v-12.6l7.6,12.6H485V176h-39.7v9.9
		l-5.5-9.9H399v9.9l-5.1-9.9h-55.1c-9.2,0-17.4,1.3-23.9,4.9V176h-38v4.9c-4.2-3.7-9.9-4.9-16.2-4.9H122l-9.4,21.6l-9.5-21.6H59.4
		v9.9l-4.9-9.9H17.3L0,215.7V259.5z"/>
	<path class="st2" d="M509.4,303.6h-26.1c-2.6,0-4.3,0.1-5.7,1.1c-1.5,1-2.1,2.4-2.1,4.3c0,2.2,1.3,3.8,3.2,4.4
		c1.4,0.5,3.1,0.7,5.5,0.7l7.7,0.2c7.8,0.2,13.1,1.6,16.3,4.8c0.5,0.5,0.9,1,1.3,1.5V303.6z M509.4,343.1
		c-3.5,5.1-10.3,7.7-19.5,7.7h-27.6v-12.9h27.5c2.7,0,4.6-0.4,5.8-1.5c1-0.9,1.7-2.2,1.7-3.9c0-1.8-0.7-3.2-1.7-4
		c-1.1-0.9-2.6-1.3-5.1-1.4c-13.4-0.4-30.2,0.4-30.2-18.5c0-8.7,5.5-17.8,20.5-17.8h28.5V279h-26.5c-8,0-13.8,1.9-17.9,4.9V279
		h-39.2c-6.2,0-13.5,1.6-17.1,4.9l0.1-4.9h-69.9v4.9c-5.6-4-14.9-4.9-19.3-4.9h-46.1v4.9c-4.4-4.3-14.2-4.9-20.2-4.9h-51.6
		l-11.8,12.8L178.9,279h-77.1v83.5h75.7l12.2-13l11.5,13l46.6,0v-19.6h4.6c6.1,0.1,13.5-0.1,19.9-2.9v22.5h38.4v-21.8h1.9
		c2.4,0,2.6,0.1,2.6,2.5v19.3h116.8c7.4,0,15.1-1.9,19.4-5.3v5.3h37.1c7.7,0,15.2-1.1,21-3.8V343.1z M452.3,319.2
		c2.8,2.9,4.3,6.6,4.3,12.7c0,12.9-8.1,18.9-22.5,18.9h-27.9v-12.9H434c2.7,0,4.6-0.4,5.9-1.5c0.9-0.9,1.6-2.2,1.6-3.9
		c0-1.8-0.8-3.2-1.7-4c-1.1-0.9-2.6-1.3-5.1-1.4c-13.4-0.4-30.1,0.4-30.1-18.5c0-8.7,5.4-17.8,20.4-17.8h28.7v12.7h-26.2
		c-2.6,0-4.3,0.1-5.8,1.1c-1.6,1-2.1,2.4-2.1,4.3c0,2.2,1.3,3.8,3.1,4.4c1.5,0.5,3.1,0.7,5.5,0.7l7.7,0.2
		C443.8,314.6,449.1,315.9,452.3,319.2z M323.3,315.5c-1.9,1.1-4.3,1.2-7,1.2h-17.4v-13.4h17.6c2.5,0,5.1,0.1,6.8,1
		c1.9,1,3,2.8,3,5.4C326.3,312.3,325.1,314.4,323.3,315.5z M331.9,322.9c3.2,1.2,5.8,3.3,7,5c2,2.9,2.3,5.7,2.4,10.9v11.9H327v-7.5
		c0-3.6,0.3-8.9-2.3-11.7c-2.1-2.2-5.3-2.7-10.5-2.7h-15.3v21.9h-14.4v-59.9h33c7.3,0,12.5,0.3,17.2,2.8c4.5,2.7,7.3,6.5,7.3,13.3
		C342,316.5,335.7,321.4,331.9,322.9z M350,290.9h47.7v12.4h-33.5v10.8h32.7v12.2h-32.7v11.9l33.5,0.1v12.4H350V290.9z M253.6,318.5
		H235v-15.2h18.7c5.2,0,8.7,2.1,8.7,7.3C262.4,315.8,259,318.5,253.6,318.5z M220.8,345.3l-21.9-24.4l21.9-23.6V345.3z M164.1,338.2
		H129v-11.9h31.4v-12.2H129v-10.8h35.8l15.6,17.4L164.1,338.2z M277.8,310.6c0,16.6-12.4,20-24.9,20H235v20.1h-27.8L189.7,331
		l-18.3,19.8h-56.6v-59.9h57.5l17.6,19.6l18.2-19.6h45.7C265.1,290.9,277.8,294,277.8,310.6z"/>
	<path class="st3" d="M280.2,204.1c0,9.5-6.4,14.4-10,15.9c3.1,1.2,5.8,3.3,7,5.1c2,2.9,2.4,5.6,2.4,10.9v11.8h-14.4l-0.1-7.5
		c0-3.6,0.4-8.7-2.3-11.6c-2.1-2.1-5.2-2.6-10.4-2.6H237v21.7h-14.3v-59.8h32.9c7.2,0,12.7,0.2,17.3,2.9
		C277.5,193.4,280.2,197.4,280.2,204.1"/>
	<polyline class="st4" points="212.8,247.7 165,247.7 165,187.9 212.8,187.9 212.8,200.4 179.4,200.4 179.4,211.1 212,211.1 
		212,223.4 179.4,223.4 179.4,235.4 212.8,235.4 	"/>
	<polyline class="st5" points="154.4,247.7 139.8,247.7 139.7,200.9 119,247.7 106.4,247.7 85.6,200.8 85.6,247.7 56.5,247.7 
		51,234.4 21.2,234.4 15.7,247.7 0.2,247.7 25.8,187.9 47,187.9 71.3,244.6 71.3,187.9 94.7,187.9 113.4,228.5 130.6,187.9 
		154.4,187.9 	"/>
	<path class="st2" d="M261.5,212.5c-1.9,1.1-4.3,1.2-7.1,1.2H237v-13.3h17.6c2.5,0,5.1,0.1,6.8,1c1.8,0.9,3,2.7,3,5.3
		C264.4,209.4,263.3,211.4,261.5,212.5"/>
	<polyline class="st2" points="45.9,221.9 36.1,198.1 26.3,221.9 	"/>
</g>
</svg>
