<svg width="30" height="30" viewBox="0 0 30 30" fill="none" xmlns="http://www.w3.org/2000/svg">
<path d="M27.2872 19.9648V19.6538H27.2088L27.118 19.8674L27.0277 19.6538H26.9487V19.9648H27.0045V19.7303L27.0893 19.9327H27.1471L27.232 19.7298V19.9648H27.2872ZM26.7893 19.9648V19.7068H26.89V19.6543H26.6334V19.7068H26.734V19.9648H26.7893Z" fill="#F79410"/>
<path d="M18.3855 21.3008H11.6087V8.71582H18.3855V21.3008Z" fill="#FF5F00"/>
<path d="M12.0422 15.006C12.0422 12.4531 13.1989 10.179 15.0003 8.71349C13.683 7.64184 12.0205 7.00221 10.2138 7.00221C5.93643 7.00221 2.46918 10.5856 2.46918 15.006C2.46918 19.4264 5.93643 23.0098 10.2138 23.0098C12.0205 23.0098 13.683 22.3701 15.0003 21.2985C13.1989 19.833 12.0422 17.5589 12.0422 15.006Z" fill="#EB001B"/>
<path d="M27.5284 15.004C27.5284 19.4245 24.0611 23.0078 19.7838 23.0078C17.9771 23.0078 16.3146 22.3682 14.9968 21.2965C16.7987 19.831 17.9554 17.557 17.9554 15.004C17.9554 12.4511 16.7987 10.177 14.9968 8.71153C16.3146 7.63989 17.9771 7.00025 19.7838 7.00025C24.0611 7.00025 27.5284 10.5836 27.5284 15.004Z" fill="#F79E1B"/>
</svg>
